<mxfile host="app.diagrams.net" modified="2023-05-05T10:33:17.942Z" agent="Mozilla/5.0 (Windows NT 10.0; Win64; x64) AppleWebKit/537.36 (KHTML, like Gecko) Chrome/111.0.0.0 Safari/537.36" version="21.2.1" etag="Gv02gZ3FO6i1RXuygK3G" type="github">
  <diagram name="Sida-1" id="BiFarNmCk7wW59zMFERo">
    <mxGraphModel>
      <root>
        <mxCell id="0" />
        <mxCell id="1" parent="0" />
      </root>
    </mxGraphModel>
  </diagram>
</mxfile>
